<?xml version="1.0" encoding="UTF-8"?>
<svg xmlns="http://www.w3.org/2000/svg" version="1.1" viewBox="726 440 68 55">
  <defs>
    <style>
      .st0 {
        fill: #FFF;
      }
    </style>
  </defs>
  <path class="st0" d="M760.15,450.94c-.52-.05-1.65-.14-2.99.29-3.26,1.06-4.9,4.33-5.61,6.21-.13.35-.64.35-.77,0-.71-1.89-2.35-5.16-5.61-6.21-1.34-.43-2.47-.34-2.99-.29-5.32.5-15.01,6.89-15.66,15.65-.52,7.03,5.02,12.26,12.86,19.65,4.43,4.18,8.63,7.03,11.57,8.82.13.08.29.08.42,0,2.94-1.79,7.14-4.64,11.57-8.82,7.84-7.39,13.38-12.62,12.86-19.65-.64-8.77-10.33-15.15-15.66-15.65Z"/>
</svg>