<?xml version="1.0" encoding="UTF-8"?>
<svg xmlns="http://www.w3.org/2000/svg" version="1.1" viewBox="0 0 1080 1080">
  <!-- Generator: Adobe Illustrator 29.4.0, SVG Export Plug-In . SVG Version: 2.1.0 Build 152)  -->
  <defs>
    <style>
      .st0 {
        fill: #FFF;
      }
    </style>
  </defs>
  <g id="slon">
    <path d="M545.91,235.35c-14.54-2.58-89.98-13.24-159.16,2.67-11.88,2.73-20.9,6.48-22.95,7.25-12.95,4.84-57.33,22.75-93.06,62.67,0,0-61.22,68.39-58.89,198.23.06,3.42.17,7.11.17,7.11.14,4,.39,7.95,1.2,25.2.9,19.18,1.89,50.8,1.82,110.47,0,0-3.67,128.78,35.56,179.2,3.95,5.08,8.14,9.3,12.51,13.18,10.46,9.29,20.57,9.05,20.72,9.05,0,0,0,0,.01,0,9.95-.31,16.89-7.22,18.23-8.61,9.28-9.64,8.29-23.19,7.3-45.67-3.08-69.61,3.08-78.03,7-79.37.29-.1,3.54-1.16,5.69.44,3.18,2.36,1.88,9,1.6,10.65-2.28,13.56-3.1,89.19,28.11,110.09,1.41.95,13.54,9.25,24.13,5.23,12.42-4.72,15.43-23.57,18.08-37.7,9.36-49.91,16.1-88.97,36.18-109.13,20.61-20.69,60.29-26.9,86.15-13.64,36.61,18.77,50.2,78.97,58.3,114.84,3.41,15.1,6.67,35.04,20.26,40.32,10.32,4.01,23.69-1.54,31.68-8.41,6.54-5.62,10.19-12.72,13.89-25.16,11.94-40.14-.18-74.1,10.65-78.77.54-.23,1.64-.71,2.86-.36,7.53,2.13,5.35,31.75,4.38,44.86-1.47,19.85-4.22,31.86-3.38,54.38.35,9.58,1.18,16.44,6.34,21.24,8.45,7.86,23.16,4.09,25.06,3.61,34.36-8.64,47.66-69.82,49.9-80.1,6.51-29.96,6.86-65.24,7-79.66.21-21.45-.88-48.7,10.72-53.07.77-.29,2.71-1.02,4.89-.47,16.62,4.19-3.8,64.98,25.08,109.27,9.92,15.21,31.5,37.44,54.02,35.45,22.48-1.99,27.8-26.51,56.73-28.58,5.15-.37,23.55-.92,25.99-8.56.65-2.04.25-4.84,2.55-7.18,1.82-1.85,4.95-3.03,7.78-2.42,2.95.63,3.25,2.68,6.01,3.17,2.85.51,5.7-1.12,6.91-2.29,4.82-4.68,2.71-18.2-4.68-25.03-7.06-6.53-17.31-5.42-24.65-4.51-22.29,2.74-27.26,14.6-47.93,20.57-6.88,1.99-28.81,8.33-40.54-.75-24.4-18.89,5.68-96.39,13.52-116.59,18.96-48.87,30.7-50.32,40.16-87.93,3.79-15.05,11.86-54.37.88-100.23-14.72-61.48-55.09-98.52-69.88-111.89-35.91-32.44-112.23-45.98-264.89-73.04Z"/>
  </g>
  
 
</svg>